<?xml version="1.0" standalone="no"?>
<!DOCTYPE svg PUBLIC "-//W3C//DTD SVG 20010904//EN"
 "http://www.w3.org/TR/2001/REC-SVG-20010904/DTD/svg10.dtd">
<svg version="1.0" xmlns="http://www.w3.org/2000/svg"
 width="300.000000pt" height="300.000000pt" viewBox="0 0 300.000000 300.000000"
 preserveAspectRatio="xMidYMid meet">
<metadata>
Created by potrace 1.11, written by Peter Selinger 2001-2013
</metadata>
<g transform="translate(0.000000,300.000000) scale(0.100000,-0.100000)"
fill="#000000" stroke="none">
<path d="M1129 1736 c-2 -2 -40 -7 -84 -10 -151 -13 -326 -59 -462 -122 -81
-37 -101 -55 -25 -23 68 30 157 56 253 76 123 25 542 24 699 -1 14 -3 50 -7
81 -11 31 -3 65 -7 75 -9 23 -4 111 -18 139 -21 11 -2 90 -17 175 -35 85 -17
166 -34 180 -36 14 -3 44 -9 68 -15 23 -5 59 -12 80 -14 39 -6 70 -12 112 -21
86 -18 332 -7 421 20 l44 13 -75 -3 c-67 -3 -191 8 -260 22 -14 3 -34 6 -45 8
-23 4 -184 33 -230 42 -16 3 -113 22 -215 44 -102 21 -203 41 -225 44 -22 4
-65 11 -95 16 -30 5 -82 12 -115 16 -33 3 -69 8 -80 11 -25 5 -411 14 -416 9z"/>
<path d="M869 1586 c-2 -2 -34 -6 -70 -10 -56 -5 -103 -13 -229 -41 -70 -15
-310 -116 -310 -130 0 -3 13 1 29 9 78 41 231 86 338 101 21 3 53 8 72 11 40
7 398 7 409 1 4 -3 50 -8 102 -11 51 -4 97 -9 100 -11 3 -2 28 -6 56 -9 117
-12 165 -20 454 -77 168 -34 314 -63 326 -65 128 -24 299 -23 408 1 12 3 34 7
50 9 55 9 37 14 -51 14 -98 -1 -126 2 -333 39 -80 14 -154 27 -165 29 -11 1
-29 5 -40 8 -34 7 -328 68 -355 72 -14 3 -38 7 -55 11 -16 4 -39 7 -50 8 -11
1 -36 5 -55 8 -19 4 -57 9 -85 12 -27 4 -61 9 -75 12 -30 6 -465 14 -471 9z"/>
<path d="M475 1550 c-3 -6 1 -7 9 -4 18 7 21 14 7 14 -6 0 -13 -4 -16 -10z"/>
</g>
</svg>
